<svg width="100" height="100" viewBox="0 0 100 100" fill="none" xmlns="http://www.w3.org/2000/svg">
<g filter="url(#filter0_d_216_122)">
<rect x="9.85129" y="9.85129" width="80.2974" height="80.2974" rx="17.1004" fill="white"/>
</g>
<g clip-path="url(#clip0_216_122)">
<rect x="18.7732" y="18.7732" width="62.2677" height="62.2677" rx="8.13406" fill="white"/>
<rect x="18.7732" y="18.7732" width="20.7559" height="62.2677" fill="#E7DDDD" stroke="#210201" stroke-width="1.68291"/>
<rect x="19.8952" y="60.285" width="19.6339" height="19.6339" fill="#210201"/>
<rect x="39.5291" y="18.7732" width="20.7559" height="62.2677" stroke="#210201" stroke-width="1.68291"/>
<rect x="60.285" y="18.7732" width="20.7559" height="62.2677" stroke="#210201" stroke-width="1.68291"/>
<rect x="18.7732" y="81.0409" width="20.7559" height="62.2677" transform="rotate(-90 18.7732 81.0409)" stroke="#210201" stroke-width="1.68291"/>
<rect x="18.7732" y="60.285" width="20.7559" height="62.2677" transform="rotate(-90 18.7732 60.285)" stroke="#210201" stroke-width="1.68291"/>
<rect x="18.7732" y="60.2231" width="62.2677" height="2.7881" fill="#210201"/>
<path d="M29.8848 63.6228C30.6897 63.6228 31.3707 63.759 31.928 64.0314C32.4976 64.3039 32.7824 64.6506 32.7824 65.0716C32.7824 65.2574 32.7329 65.4183 32.6338 65.5546C32.5471 65.6908 32.4109 65.7589 32.2252 65.7589C32.0518 65.7589 31.6679 65.6227 31.0735 65.3502C30.4791 65.0654 29.9343 64.923 29.439 64.923C28.956 64.923 28.4545 65.0778 27.9344 65.3874C27.4143 65.697 27.1543 66.0746 27.1543 66.5204C27.1543 67.1272 27.4701 67.573 28.1016 67.8578C28.5721 68.0683 29.247 68.2603 30.1262 68.4336C31.0054 68.5946 31.7236 68.9351 32.2809 69.4552C32.8381 69.9629 33.1167 70.7369 33.1167 71.7771C33.1167 73.3621 32.64 74.5323 31.6865 75.2877C31.154 75.7087 30.3987 75.9192 29.4204 75.9192C28.4545 75.9192 27.4886 75.653 26.5228 75.1205C25.8912 74.7861 25.5754 74.4518 25.5754 74.1175C25.5754 73.9936 25.625 73.8574 25.724 73.7088C25.8355 73.5602 25.9841 73.4364 26.1698 73.3373C26.3556 73.2383 26.5228 73.2259 26.6713 73.3002C26.8323 73.3621 27.0862 73.4797 27.4329 73.6531C27.7796 73.8264 28.0335 73.9441 28.1945 74.006C28.7146 74.2041 29.2037 74.3032 29.6619 74.3032C30.12 74.3032 30.5596 74.0803 30.9807 73.6345C31.4141 73.1763 31.6308 72.6191 31.6308 71.9628C31.6308 71.096 31.1974 70.4892 30.3305 70.1425C29.9095 69.9691 29.4328 69.8391 28.9003 69.7524C27.7982 69.5543 26.9685 69.2261 26.4113 68.768C25.8541 68.2974 25.5754 67.5916 25.5754 66.6505C25.5754 65.7093 25.9779 64.9726 26.7828 64.4401C27.5877 63.8952 28.6217 63.6228 29.8848 63.6228Z" fill="white"/>
</g>
<rect x="19.7549" y="19.7549" width="60.3043" height="60.3043" rx="7.15237" stroke="#210201" stroke-width="1.96339"/>
<defs>
<filter id="filter0_d_216_122" x="8.3643" y="8.73605" width="83.2714" height="83.2714" filterUnits="userSpaceOnUse" color-interpolation-filters="sRGB">
<feFlood flood-opacity="0" result="BackgroundImageFix"/>
<feColorMatrix in="SourceAlpha" type="matrix" values="0 0 0 0 0 0 0 0 0 0 0 0 0 0 0 0 0 0 127 0" result="hardAlpha"/>
<feMorphology radius="0.371747" operator="dilate" in="SourceAlpha" result="effect1_dropShadow_216_122"/>
<feOffset dy="0.371747"/>
<feGaussianBlur stdDeviation="0.557621"/>
<feComposite in2="hardAlpha" operator="out"/>
<feColorMatrix type="matrix" values="0 0 0 0 0 0 0 0 0 0 0 0 0 0 0 0 0 0 0.25 0"/>
<feBlend mode="normal" in2="BackgroundImageFix" result="effect1_dropShadow_216_122"/>
<feBlend mode="normal" in="SourceGraphic" in2="effect1_dropShadow_216_122" result="shape"/>
</filter>
<clipPath id="clip0_216_122">
<rect x="18.7732" y="18.7732" width="62.2677" height="62.2677" rx="8.13406" fill="white"/>
</clipPath>
</defs>
</svg>
