<?xml version="1.0" standalone="no"?>
<!DOCTYPE svg PUBLIC "-//W3C//DTD SVG 20010904//EN"
 "http://www.w3.org/TR/2001/REC-SVG-20010904/DTD/svg10.dtd">
<svg version="1.0" xmlns="http://www.w3.org/2000/svg"
 width="432.000000pt" height="432.000000pt" viewBox="0 0 432.000000 432.000000"
 preserveAspectRatio="xMidYMid meet">
<metadata>
Created by potrace 1.14, written by Peter Selinger 2001-2017
</metadata>
<g transform="translate(0.000000,432.000000) scale(0.100000,-0.100000)"
fill="#000000" stroke="none">
<path d="M800 3824 c-152 -41 -277 -174 -310 -331 -7 -32 -10 -488 -8 -1358
l3 -1310 22 -55 c46 -113 148 -211 268 -256 48 -18 98 -19 1385 -19 l1335 0
78 37 c128 61 219 174 247 305 7 32 10 488 8 1358 l-3 1310 -22 55 c-46 111
-140 205 -252 252 l-56 23 -1320 2 c-1139 2 -1328 0 -1375 -13z m750 -574 l0
-480 -480 0 -480 0 0 350 c0 317 2 354 19 399 24 63 64 115 118 152 82 57 88
58 471 58 l352 1 0 -480z m1120 0 l0 -480 -515 0 -515 0 0 480 0 480 515 0
515 0 0 -480z m847 458 c77 -29 152 -104 181 -181 21 -55 22 -74 22 -407 l0
-350 -480 0 -480 0 0 480 0 480 350 0 c333 0 352 -1 407 -22z m-1967 -1543 l0
-515 -480 0 -480 0 0 515 0 515 480 0 480 0 0 -515z m1120 0 l0 -515 -515 0
-515 0 0 515 0 515 515 0 515 0 0 -515z m1050 0 l0 -515 -480 0 -480 0 0 515
0 515 480 0 480 0 0 -515z m-1050 -1135 l0 -430 -515 0 -515 0 0 430 0 430
515 0 515 0 0 -430z m1050 130 c0 -279 -1 -303 -21 -355 -29 -77 -106 -155
-182 -183 -55 -21 -73 -22 -407 -22 l-350 0 0 430 0 430 480 0 480 0 0 -300z
m-2528 223 c22 -13 34 -28 36 -46 5 -39 -19 -44 -92 -18 -71 25 -95 26 -141 7
-43 -18 -69 -58 -61 -91 9 -35 50 -58 152 -85 134 -35 173 -86 162 -213 -6
-68 -32 -122 -76 -155 -32 -24 -44 -27 -121 -27 -77 0 -92 3 -141 30 -47 26
-55 34 -55 59 0 46 25 54 87 27 83 -36 117 -42 155 -26 65 28 95 125 53 178
-19 24 -75 48 -150 63 -56 11 -109 42 -130 77 -25 40 -26 118 -3 157 17 30 77
68 127 81 52 14 161 4 198 -18z"/>
</g>
</svg>
